# Blender v2.79 (sub 0) OBJ File: 'cube.blend'
# www.blender.org
mtllib cube2_sub_disp.mtl
o Cube.001
v -0.087117 -0.356983 0.242274
v -0.138669 -0.293850 0.247378
v -0.066932 -0.341715 0.120981
v 0.005688 -0.309016 0.264479
v -0.047179 -0.235665 0.334950
v -0.171931 -0.334054 0.124921
v 0.039526 -0.408829 0.168541
v 0.253967 0.328389 -0.139396
v 0.262882 0.330683 -0.240898
v 0.185558 0.392125 -0.086416
v 0.312262 0.266568 -0.079708
v 0.378779 0.223258 -0.200807
v 0.107415 0.333940 -0.156003
v 0.265359 0.371555 0.012188
v 0.310610 -0.188183 0.193173
v 0.260171 -0.101104 0.162738
v 0.255471 -0.240964 0.268155
v 0.363096 -0.247884 0.112675
v 0.296746 -0.108650 0.053656
v 0.214383 -0.122609 0.287220
v 0.277641 -0.346156 0.160122
v -0.072577 0.262905 0.386886
v -0.092444 0.295646 0.309868
v -0.134020 0.158106 0.375000
v 0.044604 0.231637 0.379740
v 0.050623 0.319011 0.299632
v -0.208782 0.206681 0.293885
v -0.011420 0.119139 0.442922
v -0.393136 -0.084671 -0.209551
v -0.348750 -0.007314 -0.202444
v -0.329668 -0.153798 -0.268963
v -0.427647 -0.118282 -0.108156
v -0.457797 0.005534 -0.084425
v -0.225768 -0.052127 -0.264004
v -0.329327 -0.210910 -0.133277
v 0.199154 -0.223565 -0.220451
v 0.168891 -0.325751 -0.283932
v 0.215093 -0.158747 -0.290806
v 0.285143 -0.274010 -0.165187
v 0.214871 -0.372137 -0.146785
v 0.113036 -0.181907 -0.333523
v 0.277927 -0.135805 -0.184330
v -0.287525 -0.158774 0.252184
v -0.226593 -0.060314 0.260470
v -0.380601 -0.171658 0.182982
v -0.236489 -0.211181 0.256324
v -0.154781 -0.114637 0.315735
v -0.367270 -0.038874 0.224766
v -0.287515 -0.239786 0.134515
v 0.133585 0.187308 -0.352505
v 0.185410 0.099887 -0.395236
v 0.033027 0.226291 -0.391925
v 0.158290 0.208550 -0.282194
v 0.262381 0.117491 -0.297126
v 0.049684 0.099810 -0.461412
v 0.052805 0.298790 -0.298926
v 0.357115 0.083878 0.211895
v 0.415905 0.139891 0.134928
v 0.306987 0.137253 0.291750
v 0.350298 0.007302 0.207189
v 0.449051 0.026963 0.085281
v 0.343429 0.249601 0.216814
v 0.256307 0.026940 0.311146
v -0.126281 0.382405 0.122400
v -0.038761 0.367191 0.058938
v -0.206209 0.355442 0.070452
v -0.135804 0.397850 0.225166
v 0.009112 0.351534 0.144340
v -0.116562 0.395322 -0.021958
v -0.280262 0.337147 0.190143
v -0.288761 0.180709 -0.201077
v -0.344603 0.263239 -0.139594
v -0.252289 0.227019 -0.303968
v -0.329316 0.116300 -0.208919
v -0.389349 0.162399 -0.081937
v -0.229505 0.323536 -0.212223
v -0.236248 0.101479 -0.314865
v -0.036561 -0.344542 -0.213287
v -0.049006 -0.337994 -0.107566
v -0.106113 -0.289124 -0.248620
v 0.038103 -0.351651 -0.255387
v 0.056622 -0.396482 -0.122671
v -0.161948 -0.353310 -0.147358
v -0.034642 -0.238988 -0.316860
v 0.428628 0.100181 -0.073435
v 0.382883 0.199674 0.008869
v 0.304861 0.296115 0.099739
v 0.149565 0.072630 0.432321
v 0.185080 0.191936 0.352724
v 0.224976 0.342327 0.306412
v 0.133247 -0.384267 -0.127215
v 0.093839 -0.312295 -0.250615
v 0.035654 -0.217091 -0.360303
v 0.257408 -0.379605 0.004730
v 0.359074 -0.289201 -0.033632
v 0.281464 -0.114972 -0.060753
v -0.090261 0.334671 -0.273767
v -0.121284 0.248193 -0.383927
v -0.109031 0.098625 -0.402044
v 0.318951 -0.021087 -0.271406
v 0.213385 -0.041297 -0.362681
v 0.076555 -0.052135 -0.385446
v 0.300175 0.140578 -0.224653
v 0.229461 0.289614 -0.286334
v 0.093221 0.376322 -0.264756
v 0.036687 0.385287 0.248409
v -0.106803 0.318176 0.246740
v -0.246779 0.249645 0.230006
v 0.226720 -0.049071 0.312906
v 0.338444 -0.054313 0.205312
v 0.412285 -0.052617 0.062671
v -0.187801 0.370465 -0.107423
v -0.327021 0.345466 -0.016987
v -0.354206 0.227239 0.065000
v -0.174325 -0.354907 -0.009321
v -0.058874 -0.348004 0.004990
v 0.045963 -0.379537 0.019958
v 0.102590 -0.190617 0.407116
v 0.138179 -0.303178 0.325796
v 0.157375 -0.384373 0.183793
v -0.002585 0.361049 -0.090837
v 0.069175 0.408895 -0.005862
v 0.138011 0.392479 0.095577
v -0.271585 -0.311243 -0.171166
v -0.194964 -0.210453 -0.264440
v -0.124118 -0.121750 -0.301784
v -0.316814 -0.233321 0.001665
v -0.436603 -0.154849 0.040222
v -0.475355 -0.013455 0.089758
v -0.089741 -0.160384 0.324364
v -0.150342 -0.203667 0.204218
v -0.242513 -0.303877 0.131315
v -0.340461 0.070819 -0.049325
v -0.301075 0.048316 -0.182642
v -0.201965 0.016553 -0.276497
v -0.084904 -0.012249 0.374382
v -0.188391 0.036461 0.320199
v -0.273593 0.080296 0.241263
v 0.051765 -0.058392 0.386563
v -0.277162 -0.332256 -0.015064
v 0.143914 -0.381219 0.025537
v 0.438946 -0.009449 -0.150927
v -0.056191 0.375488 -0.182358
v 0.184392 0.356523 0.180240
v -0.340210 0.111832 0.122839
v -0.069356 -0.048449 -0.382305
vt 0.222222 0.222222
vt 0.200521 0.268229
vt 0.149306 0.253472
vt 0.197917 0.197917
vt 0.109375 0.223958
vt 0.166667 0.166667
vt 0.171875 0.328125
vt 0.104167 0.312500
vt 0.052083 0.281250
vt 0.253472 0.149306
vt 0.268229 0.200521
vt 0.312500 0.104167
vt 0.328125 0.171875
vt 0.223958 0.109375
vt 0.281250 0.052083
vt 0.263889 0.263889
vt 0.250000 0.333333
vt 0.333333 0.250000
vt 0.333333 0.333334
vt 0.111111 0.555556
vt 0.065104 0.533854
vt 0.079861 0.482639
vt 0.135417 0.531250
vt 0.109375 0.442709
vt 0.166667 0.500000
vt 0.005208 0.505208
vt 0.020833 0.437500
vt 0.052083 0.385417
vt 0.184028 0.586806
vt 0.132813 0.601563
vt 0.229167 0.645833
vt 0.161458 0.661458
vt 0.223958 0.557292
vt 0.281250 0.614583
vt 0.069445 0.597222
vt 0.000000 0.583333
vt 0.083333 0.666667
vt 0.000000 0.666667
vt 0.777778 0.222222
vt 0.731771 0.200521
vt 0.746528 0.149306
vt 0.802083 0.197917
vt 0.776042 0.109375
vt 0.833333 0.166667
vt 0.671875 0.171875
vt 0.687500 0.104167
vt 0.718750 0.052083
vt 0.850695 0.253472
vt 0.799479 0.268229
vt 0.895833 0.312500
vt 0.828125 0.328125
vt 0.890625 0.223958
vt 0.947917 0.281250
vt 0.736111 0.263889
vt 0.666667 0.250000
vt 0.750000 0.333333
vt 0.666667 0.333333
vt 0.111111 0.777778
vt 0.132812 0.731771
vt 0.184028 0.746528
vt 0.135417 0.802083
vt 0.223958 0.776042
vt 0.166667 0.833333
vt 0.161458 0.671875
vt 0.229167 0.687500
vt 0.281250 0.718750
vt 0.079861 0.850694
vt 0.065104 0.799479
vt 0.020833 0.895833
vt 0.005208 0.828125
vt 0.109375 0.890625
vt 0.052083 0.947917
vt 0.069444 0.736111
vt 0.083333 0.666667
vt 0.000000 0.750000
vt 0.000000 0.666667
vt 0.444444 0.555556
vt 0.398438 0.533854
vt 0.413194 0.482639
vt 0.468750 0.531250
vt 0.442708 0.442709
vt 0.500000 0.500000
vt 0.338542 0.505209
vt 0.354167 0.437500
vt 0.385417 0.385417
vt 0.517361 0.586806
vt 0.466146 0.601563
vt 0.562500 0.645834
vt 0.494792 0.661458
vt 0.557292 0.557292
vt 0.614583 0.614584
vt 0.402778 0.597222
vt 0.333333 0.583334
vt 0.416667 0.666667
vt 0.333333 0.666667
vt 0.444445 0.222222
vt 0.398438 0.200521
vt 0.413195 0.149305
vt 0.468750 0.197917
vt 0.442708 0.109375
vt 0.500000 0.166667
vt 0.338542 0.171875
vt 0.354167 0.104167
vt 0.385417 0.052083
vt 0.517361 0.253472
vt 0.466146 0.268229
vt 0.562500 0.312500
vt 0.494792 0.328125
vt 0.557292 0.223958
vt 0.614583 0.281250
vt 0.402778 0.263889
vt 0.333333 0.250000
vt 0.416667 0.333333
vt 0.333333 0.333333
vt 0.111111 0.111111
vt 0.135417 0.135417
vt 0.079861 0.184028
vt 0.065104 0.132812
vt 0.020833 0.229167
vt 0.005208 0.161458
vt 0.069444 0.069444
vt 0.132813 0.065104
vt 0.083333 0.000000
vt 0.161458 0.005208
vt 0.000000 0.083333
vt 0.000000 0.000000
vt 0.184028 0.079861
vt 0.229167 0.020833
vt 0.222222 0.444445
vt 0.197917 0.468750
vt 0.149306 0.413195
vt 0.200521 0.398438
vt 0.104167 0.354167
vt 0.171875 0.338542
vt 0.263889 0.402778
vt 0.268229 0.466146
vt 0.333333 0.416667
vt 0.328125 0.494792
vt 0.250000 0.333334
vt 0.333334 0.333334
vt 0.253472 0.517361
vt 0.312500 0.562500
vt 0.888889 0.111111
vt 0.864583 0.135417
vt 0.815972 0.079861
vt 0.867188 0.065104
vt 0.770833 0.020833
vt 0.838542 0.005208
vt 0.930556 0.069444
vt 0.934896 0.132812
vt 1.000000 0.083333
vt 0.994792 0.161458
vt 0.916667 0.000000
vt 1.000000 0.000000
vt 0.920139 0.184028
vt 0.979167 0.229167
vt 0.222222 0.888889
vt 0.197917 0.864583
vt 0.253472 0.815972
vt 0.268229 0.867188
vt 0.312500 0.770833
vt 0.328125 0.838542
vt 0.263889 0.930556
vt 0.200521 0.934896
vt 0.250000 1.000000
vt 0.171875 0.994792
vt 0.333333 0.916667
vt 0.333333 1.000000
vt 0.149305 0.920139
vt 0.104167 0.979167
vt 0.555555 0.444445
vt 0.531250 0.468750
vt 0.482639 0.413195
vt 0.533854 0.398438
vt 0.437500 0.354167
vt 0.505208 0.338542
vt 0.597222 0.402778
vt 0.601562 0.466146
vt 0.666667 0.416667
vt 0.661458 0.494792
vt 0.583333 0.333334
vt 0.666666 0.333334
vt 0.586805 0.517361
vt 0.645833 0.562500
vt 0.555556 0.111111
vt 0.531250 0.135417
vt 0.482639 0.079861
vt 0.533854 0.065104
vt 0.437500 0.020833
vt 0.505208 0.005208
vt 0.597222 0.069444
vt 0.601563 0.132812
vt 0.666667 0.083333
vt 0.661458 0.161458
vt 0.583333 0.000000
vt 0.666667 0.000000
vt 0.586806 0.184028
vt 0.645833 0.229167
vn -0.2687 -0.8502 0.4528
vn -0.1650 -0.7547 0.6350
vn -0.4363 -0.3425 0.8320
vn -0.5849 -0.5127 0.6285
vn -0.4093 -0.3012 0.8612
vn -0.4498 -0.5476 0.7055
vn -0.1557 -0.7364 0.6584
vn -0.3300 -0.3712 0.8679
vn -0.3361 -0.1518 0.9295
vn -0.3920 -0.8668 0.3082
vn -0.2582 -0.9617 0.0919
vn -0.1568 -0.9747 0.1595
vn -0.2006 -0.9797 0.0072
vn -0.5474 -0.7067 0.4483
vn -0.6105 -0.7569 0.2332
vn -0.1251 -0.9721 0.1986
vn 0.0060 -0.9545 0.2982
vn -0.1590 -0.9814 -0.1075
vn 0.1146 -0.9876 -0.1071
vn 0.5061 0.8447 -0.1740
vn 0.7654 0.6427 -0.0329
vn 0.8108 0.3888 -0.4376
vn 0.5040 0.7659 -0.3993
vn 0.6386 0.1396 -0.7568
vn 0.3897 0.3964 -0.8313
vn 0.8214 0.5703 0.0007
vn 0.8738 0.3219 -0.3644
vn 0.7524 0.1525 -0.6408
vn 0.1015 0.9808 -0.1665
vn 0.2214 0.9404 -0.2581
vn 0.0473 0.9897 -0.1351
vn 0.0236 0.9737 -0.2267
vn 0.1269 0.8601 -0.4941
vn 0.0462 0.9728 -0.2271
vn 0.5769 0.8166 0.0176
vn 0.6895 0.7156 0.1116
vn 0.3338 0.9259 0.1770
vn 0.4713 0.8290 0.3012
vn 0.8599 0.2124 0.4642
vn 0.9738 -0.0791 0.2131
vn 0.9395 -0.3390 0.0503
vn 0.8666 -0.2691 0.4202
vn 0.7726 -0.6157 0.1546
vn 0.6751 -0.5616 0.4783
vn 0.9832 -0.1820 -0.0158
vn 0.8904 -0.4334 -0.1391
vn 0.8590 -0.5091 -0.0542
vn 0.7097 -0.1069 0.6964
vn 0.7181 -0.2097 0.6636
vn 0.5991 -0.0156 0.8005
vn 0.5995 -0.3768 0.7061
vn 0.6043 -0.3437 0.7188
vn 0.5287 -0.1628 0.8330
vn 0.5884 -0.7258 0.3565
vn 0.4881 -0.8674 0.0973
vn 0.3606 -0.8590 0.3636
vn 0.1814 -0.9805 0.0752
vn -0.2437 0.5720 0.7832
vn 0.0736 0.5151 0.8540
vn 0.0051 0.7539 0.6569
vn -0.3346 0.7020 0.6287
vn -0.0341 0.9319 0.3612
vn -0.2692 0.6940 0.6677
vn 0.1543 0.4501 0.8795
vn 0.0906 0.7331 0.6741
vn 0.0291 0.9768 0.2123
vn -0.6886 0.3463 0.6371
vn -0.5389 0.1601 0.8270
vn -0.7784 0.1091 0.6182
vn -0.6235 -0.0532 0.7800
vn -0.6779 0.2771 0.6809
vn -0.8342 0.1096 0.5404
vn -0.1342 0.0541 0.9895
vn 0.0933 0.1133 0.9892
vn -0.3490 -0.2370 0.9067
vn -0.1095 -0.3360 0.9355
vn -0.7514 -0.0526 -0.6578
vn -0.8717 -0.3859 -0.3020
vn -0.8584 0.4149 -0.3017
vn -0.5532 0.4563 -0.6970
vn -0.9345 0.3248 -0.1456
vn -0.7827 0.0437 -0.6209
vn -0.8617 -0.4881 -0.1390
vn -0.9058 0.4075 -0.1160
vn -0.9412 0.3315 0.0648
vn -0.4113 0.0908 -0.9070
vn -0.5408 -0.2294 -0.8093
vn -0.4109 -0.1213 -0.9036
vn -0.3633 -0.2872 -0.8863
vn -0.6230 -0.2089 -0.7538
vn -0.6054 -0.2828 -0.7440
vn -0.7450 -0.6037 -0.2836
vn -0.7857 -0.6106 -0.0994
vn -0.7726 -0.5340 -0.3434
vn -0.9022 -0.4293 -0.0425
vn 0.7123 -0.2667 -0.6493
vn 0.8323 -0.2598 -0.4896
vn 0.3733 -0.8466 -0.3795
vn 0.3625 -0.6016 -0.7118
vn 0.0763 -0.9782 -0.1930
vn 0.0741 -0.7573 -0.6489
vn 0.8732 -0.3411 -0.3480
vn 0.3824 -0.9050 -0.1864
vn 0.0624 -0.9978 0.0206
vn 0.2941 -0.3595 -0.8856
vn 0.6253 -0.3729 -0.6855
vn 0.2004 -0.2716 -0.9413
vn 0.5090 -0.4455 -0.7365
vn -0.0654 -0.4283 -0.9013
vn -0.2331 -0.2978 -0.9257
vn 0.8067 -0.3901 -0.4439
vn 0.9228 -0.2446 -0.2977
vn 0.6928 -0.6105 -0.3839
vn 0.6301 -0.7448 -0.2198
vn -0.4697 -0.2990 0.8307
vn -0.2869 -0.6201 0.7301
vn -0.3422 -0.3550 0.8700
vn -0.4775 -0.0601 0.8766
vn -0.3839 -0.2486 0.8893
vn -0.5346 -0.1020 0.8389
vn -0.6553 0.0895 0.7500
vn -0.6653 -0.5279 0.5279
vn -0.8334 0.0718 0.5480
vn -0.7541 -0.5812 0.3059
vn -0.5758 0.2089 0.7905
vn -0.6565 0.4999 0.5649
vn -0.5325 -0.7621 0.3683
vn -0.7218 -0.6706 0.1711
vn 0.5162 0.6152 -0.5959
vn 0.4358 0.4192 -0.7965
vn 0.6366 0.2677 -0.7233
vn 0.5456 0.2263 -0.8069
vn 0.7211 0.1880 -0.6668
vn 0.5516 -0.0923 -0.8290
vn 0.0926 0.0532 -0.9943
vn 0.1942 0.5902 -0.7835
vn -0.1972 0.0016 -0.9804
vn -0.0479 0.5697 -0.8204
vn 0.0870 -0.3153 -0.9450
vn -0.1919 -0.3376 -0.9215
vn 0.1327 0.6275 -0.7672
vn -0.0305 0.7728 -0.6339
vn 0.7887 -0.0631 0.6115
vn 0.7623 -0.2126 0.6113
vn 0.9656 -0.0469 0.2558
vn 0.9165 0.2668 0.2982
vn 0.9960 0.0873 -0.0179
vn 0.8874 0.4610 0.0011
vn 0.7849 0.4837 0.3873
vn 0.7074 0.0442 0.7054
vn 0.6649 0.5796 0.4710
vn 0.6237 0.1341 0.7701
vn 0.7051 0.7088 0.0211
vn 0.5533 0.8325 0.0277
vn 0.6480 -0.1871 0.7383
vn 0.5696 -0.2184 0.7924
vn -0.0440 0.9986 -0.0286
vn -0.1566 0.9007 0.4052
vn 0.0009 0.9893 0.1462
vn -0.0302 0.9972 0.0687
vn -0.1089 0.9833 0.1460
vn -0.1387 0.9817 0.1308
vn -0.0754 0.9971 -0.0039
vn -0.3393 0.9391 0.0538
vn -0.1012 0.9948 -0.0128
vn -0.4728 0.8720 0.1267
vn -0.0054 0.9969 -0.0786
vn 0.0595 0.9932 -0.1004
vn -0.6422 0.5715 0.5108
vn -0.8217 0.3941 0.4116
vn -0.8084 0.2204 -0.5458
vn -0.8520 -0.1899 -0.4878
vn -0.9882 -0.0436 -0.1466
vn -0.8086 0.4590 -0.3681
vn -0.9939 0.0351 0.1045
vn -0.7961 0.5846 -0.1566
vn -0.4973 0.7366 -0.4583
vn -0.6699 0.3445 -0.6577
vn -0.3077 0.8358 -0.4547
vn -0.5058 0.3987 -0.7650
vn -0.3658 0.8689 -0.3334
vn -0.2193 0.9194 -0.3265
vn -0.6990 -0.1873 -0.6901
vn -0.5969 -0.1935 -0.7786
vn -0.2834 -0.8777 -0.3864
vn -0.0530 -0.8175 -0.5734
vn -0.0783 -0.9863 -0.1451
vn -0.1836 -0.9770 -0.1088
vn -0.1707 -0.9848 0.0314
vn -0.1575 -0.9873 -0.0219
vn -0.1524 -0.9368 -0.3150
vn -0.2730 -0.6603 -0.6996
vn -0.2818 -0.8498 -0.4455
vn -0.3068 -0.4792 -0.8223
vn -0.0882 -0.9940 -0.0648
vn -0.2786 -0.9561 -0.0905
vn -0.2982 -0.4937 -0.8169
vn -0.4348 -0.3434 -0.8325
usemtl Material.002
s 1
f 1/1/1 4/2/2 5/3/3 2/4/4
f 2/4/4 5/3/3 130/5/5 131/6/6
f 4/2/2 119/7/7 118/8/8 5/3/3
f 5/3/3 118/8/8 139/9/9 130/5/5
f 1/1/1 2/4/4 6/10/10 3/11/11
f 3/11/11 6/10/10 115/12/12 116/13/13
f 2/4/4 131/6/6 132/14/14 6/10/10
f 6/10/10 132/14/14 140/15/15 115/12/12
f 1/1/1 3/11/11 7/16/16 4/2/2
f 4/2/2 7/16/16 120/17/17 119/7/7
f 3/11/11 116/13/13 117/18/18 7/16/16
f 7/16/16 117/18/18 141/19/19 120/17/17
f 8/20/20 11/21/21 12/22/22 9/23/23
f 9/23/23 12/22/22 103/24/24 104/25/25
f 11/21/21 86/26/26 85/27/27 12/22/22
f 12/22/22 85/27/27 142/28/28 103/24/24
f 8/20/20 9/23/23 13/29/29 10/30/30
f 10/30/30 13/29/29 121/31/31 122/32/32
f 9/23/23 104/25/25 105/33/33 13/29/29
f 13/29/29 105/33/33 143/34/34 121/31/31
f 8/20/20 10/30/30 14/35/35 11/21/21
f 11/21/21 14/35/35 87/36/36 86/26/26
f 10/30/30 122/32/32 123/37/37 14/35/35
f 14/35/35 123/37/37 144/38/38 87/36/36
f 15/39/39 18/40/40 19/41/41 16/42/42
f 16/42/42 19/41/41 111/43/43 110/44/44
f 18/40/40 95/45/45 96/46/46 19/41/41
f 19/41/41 96/46/46 142/47/47 111/43/43
f 15/39/39 16/42/42 20/48/48 17/49/49
f 17/49/49 20/48/48 118/50/50 119/51/51
f 16/42/42 110/44/44 109/52/52 20/48/48
f 20/48/48 109/52/52 139/53/53 118/50/50
f 15/39/39 17/49/49 21/54/54 18/40/40
f 18/40/40 21/54/54 94/55/55 95/45/45
f 17/49/49 119/51/51 120/56/56 21/54/54
f 21/54/54 120/56/56 141/57/57 94/55/55
f 22/58/58 25/59/59 26/60/60 23/61/61
f 23/61/61 26/60/60 106/62/62 107/63/63
f 25/59/59 89/64/64 90/65/65 26/60/60
f 26/60/60 90/65/65 144/66/66 106/62/62
f 22/58/58 23/61/61 27/67/67 24/68/68
f 24/68/68 27/67/67 138/69/69 137/70/70
f 23/61/61 107/63/63 108/71/71 27/67/67
f 27/67/67 108/71/71 145/72/72 138/69/69
f 22/58/58 24/68/68 28/73/73 25/59/59
f 25/59/59 28/73/73 88/74/74 89/64/64
f 24/68/68 137/70/70 136/75/75 28/73/73
f 28/73/73 136/75/75 139/76/76 88/74/74
f 29/77/77 32/78/78 33/79/79 30/80/80
f 30/80/80 33/79/79 133/81/81 134/82/82
f 32/78/78 128/83/83 129/84/84 33/79/79
f 33/79/79 129/84/84 145/85/85 133/81/81
f 29/77/77 30/80/80 34/86/86 31/87/87
f 31/87/87 34/86/86 126/88/88 125/89/89
f 30/80/80 134/82/82 135/90/90 34/86/86
f 34/86/86 135/90/90 146/91/91 126/88/88
f 29/77/77 31/87/87 35/92/92 32/78/78
f 32/78/78 35/92/92 127/93/93 128/83/83
f 31/87/87 125/89/89 124/94/94 35/92/92
f 35/92/92 124/94/94 140/95/95 127/93/93
f 36/96/96 39/97/97 40/98/98 37/99/99
f 37/99/99 40/98/98 91/100/100 92/101/101
f 39/97/97 95/102/102 94/103/103 40/98/98
f 40/98/98 94/103/103 141/104/104 91/100/100
f 36/96/96 37/99/99 41/105/105 38/106/106
f 38/106/106 41/105/105 102/107/107 101/108/108
f 37/99/99 92/101/101 93/109/109 41/105/105
f 41/105/105 93/109/109 146/110/110 102/107/107
f 36/96/96 38/106/106 42/111/111 39/97/97
f 39/97/97 42/111/111 96/112/112 95/102/102
f 38/106/106 101/108/108 100/113/113 42/111/111
f 42/111/111 100/113/113 142/114/114 96/112/112
f 43/115/115 46/116/116 47/117/117 44/118/118
f 44/118/118 47/117/117 136/119/119 137/120/120
f 46/116/116 131/6/6 130/5/5 47/117/117
f 47/117/117 130/5/5 139/9/9 136/119/119
f 43/115/115 44/118/118 48/121/121 45/122/122
f 45/122/122 48/121/121 129/123/123 128/124/124
f 44/118/118 137/120/120 138/125/125 48/121/121
f 48/121/121 138/125/125 145/126/126 129/123/123
f 43/115/115 45/122/122 49/127/127 46/116/116
f 46/116/116 49/127/127 132/14/14 131/6/6
f 45/122/122 128/124/124 127/128/128 49/127/127
f 49/127/127 127/128/128 140/15/15 132/14/14
f 50/129/129 53/130/130 54/131/131 51/132/132
f 51/132/132 54/131/131 100/133/133 101/134/134
f 53/130/130 104/25/25 103/24/24 54/131/131
f 54/131/131 103/24/24 142/28/28 100/133/133
f 50/129/129 51/132/132 55/135/135 52/136/136
f 52/136/136 55/135/135 99/137/137 98/138/138
f 51/132/132 101/134/134 102/139/139 55/135/135
f 55/135/135 102/139/139 146/140/140 99/137/137
f 50/129/129 52/136/136 56/141/141 53/130/130
f 53/130/130 56/141/141 105/33/33 104/25/25
f 52/136/136 98/138/138 97/142/142 56/141/141
f 56/141/141 97/142/142 143/34/34 105/33/33
f 57/143/143 60/144/144 61/145/145 58/146/146
f 58/146/146 61/145/145 85/147/147 86/148/148
f 60/144/144 110/44/44 111/43/43 61/145/145
f 61/145/145 111/43/43 142/47/47 85/147/147
f 57/143/143 58/146/146 62/149/149 59/150/150
f 59/150/150 62/149/149 90/151/151 89/152/152
f 58/146/146 86/148/148 87/153/153 62/149/149
f 62/149/149 87/153/153 144/154/154 90/151/151
f 57/143/143 59/150/150 63/155/155 60/144/144
f 60/144/144 63/155/155 109/52/52 110/44/44
f 59/150/150 89/152/152 88/156/156 63/155/155
f 63/155/155 88/156/156 139/53/53 109/52/52
f 64/157/157 67/158/158 68/159/159 65/160/160
f 65/160/160 68/159/159 123/161/161 122/162/162
f 67/158/158 107/63/63 106/62/62 68/159/159
f 68/159/159 106/62/62 144/66/66 123/161/161
f 64/157/157 65/160/160 69/163/163 66/164/164
f 66/164/164 69/163/163 112/165/165 113/166/166
f 65/160/160 122/162/162 121/167/167 69/163/163
f 69/163/163 121/167/167 143/168/168 112/165/165
f 64/157/157 66/164/164 70/169/169 67/158/158
f 67/158/158 70/169/169 108/71/71 107/63/63
f 66/164/164 113/166/166 114/170/170 70/169/169
f 70/169/169 114/170/170 145/72/72 108/71/71
f 71/171/171 74/172/172 75/173/173 72/174/174
f 72/174/174 75/173/173 114/175/175 113/176/176
f 74/172/172 134/82/82 133/81/81 75/173/173
f 75/173/173 133/81/81 145/85/85 114/175/175
f 71/171/171 72/174/174 76/177/177 73/178/178
f 73/178/178 76/177/177 97/179/179 98/180/180
f 72/174/174 113/176/176 112/181/181 76/177/177
f 76/177/177 112/181/181 143/182/182 97/179/179
f 71/171/171 73/178/178 77/183/183 74/172/172
f 74/172/172 77/183/183 135/90/90 134/82/82
f 73/178/178 98/180/180 99/184/184 77/183/183
f 77/183/183 99/184/184 146/91/91 135/90/90
f 78/185/185 81/186/186 82/187/187 79/188/188
f 79/188/188 82/187/187 117/189/189 116/190/190
f 81/186/186 92/101/101 91/100/100 82/187/187
f 82/187/187 91/100/100 141/104/104 117/189/189
f 78/185/185 79/188/188 83/191/191 80/192/192
f 80/192/192 83/191/191 124/193/193 125/194/194
f 79/188/188 116/190/190 115/195/195 83/191/191
f 83/191/191 115/195/195 140/196/196 124/193/193
f 78/185/185 80/192/192 84/197/197 81/186/186
f 81/186/186 84/197/197 93/109/109 92/101/101
f 80/192/192 125/194/194 126/198/198 84/197/197
f 84/197/197 126/198/198 146/110/110 93/109/109
