# Blender v2.79 (sub 0) OBJ File: 'cube2.blend'
# www.blender.org
mtllib cube2.mtl
o Cube
v 0.000000 -0.003747 -0.811890
v 0.662913 -0.383978 -0.268864
v -0.000000 -0.764209 0.274162
v -0.662913 -0.383977 -0.268864
v 0.000000 0.764209 -0.274162
v 0.662913 0.383977 0.268864
v -0.000000 0.003747 0.811890
v -0.662913 0.383978 0.268864
vt 1.000000 0.333333
vt 0.666667 0.666667
vt 0.666667 0.333333
vt 1.000000 0.333333
vt 0.666667 0.000000
vt 1.000000 0.000000
vt 0.000000 0.333333
vt 0.333333 0.000000
vt 0.333333 0.333333
vt 0.333333 0.000000
vt 0.666667 0.333333
vt 0.333333 0.333333
vt 0.333333 1.000000
vt 0.000000 0.666667
vt 0.333333 0.666667
vt 1.000000 0.666667
vt 0.666667 0.333333
vt 0.000000 0.000000
vt 0.666667 0.000000
vt 0.000000 1.000000
vn 0.0000 -0.8192 -0.5736
vn -0.0000 0.8192 0.5736
vn 0.7071 0.4056 -0.5792
vn 0.7071 -0.4056 0.5792
vn -0.7071 -0.4056 0.5792
vn -0.7071 0.4056 -0.5792
usemtl Material
s off
f 2/1/1 4/2/1 1/3/1
f 8/4/2 6/5/2 5/6/2
f 5/7/3 2/8/3 1/9/3
f 6/10/4 3/11/4 2/12/4
f 3/13/5 8/14/5 4/15/5
f 1/9/6 8/14/6 5/7/6
f 2/1/1 3/16/1 4/2/1
f 8/4/2 7/17/2 6/5/2
f 5/7/3 6/18/3 2/8/3
f 6/10/4 7/19/4 3/11/4
f 3/13/5 7/20/5 8/14/5
f 1/9/6 4/15/6 8/14/6
