# Blender v2.79 (sub 0) OBJ File: 'cube.blend'
# www.blender.org
mtllib cube.mtl
o Cube.001
v -0.008394 -0.075612 0.321219
v -0.053006 -0.040010 0.298997
v -0.003663 -0.128345 0.244846
v 0.056484 -0.034901 0.297774
v 0.014374 0.039569 0.306313
v -0.081784 -0.125570 0.256358
v 0.085639 -0.137509 0.290915
v 0.141986 0.117773 -0.271736
v 0.141197 0.067622 -0.329417
v 0.088216 0.177541 -0.266002
v 0.195983 0.116116 -0.215638
v 0.241345 0.032812 -0.268512
v 0.031957 0.107560 -0.265174
v 0.156330 0.219079 -0.211926
v 0.263538 0.005171 0.160312
v 0.214641 0.035866 0.106607
v 0.233829 0.012554 0.234493
v 0.303173 -0.066919 0.139541
v 0.234826 -0.022646 0.046220
v 0.191901 0.085955 0.191044
v 0.254103 -0.099553 0.225176
v -0.055148 0.339161 0.089256
v -0.078801 0.317270 0.033373
v -0.089934 0.273505 0.142735
v 0.034324 0.322179 0.086235
v 0.023613 0.329585 -0.001826
v -0.156153 0.256428 0.083611
v 0.009650 0.290708 0.183860
v -0.295874 -0.166155 -0.022842
v -0.271029 -0.118571 -0.063106
v -0.245618 -0.232323 -0.028779
v -0.310583 -0.134107 0.053611
v -0.344700 -0.054969 0.008615
v -0.179614 -0.170522 -0.089811
v -0.229610 -0.194580 0.073740
v 0.156037 -0.228615 -0.033889
v 0.140377 -0.318096 -0.013797
v 0.155801 -0.228312 -0.106624
v 0.228940 -0.225367 0.010644
v 0.189030 -0.272219 0.078441
v 0.079941 -0.266143 -0.105587
v 0.207185 -0.159410 -0.067816
v -0.177368 0.031784 0.252954
v -0.142520 0.092107 0.200735
v -0.249573 -0.013596 0.233279
v -0.133659 0.006768 0.274940
v -0.079666 0.092761 0.248981
v -0.251283 0.081090 0.188210
v -0.176778 -0.072670 0.229102
v 0.053499 -0.072252 -0.302633
v 0.098322 -0.140358 -0.288878
v -0.027804 -0.074206 -0.330971
v 0.074365 -0.023955 -0.277936
v 0.160145 -0.078186 -0.253751
v -0.006574 -0.178557 -0.307934
v -0.014578 0.013653 -0.318826
v 0.269517 0.165732 0.029039
v 0.301431 0.159234 -0.048294
v 0.232268 0.234095 0.052318
v 0.272507 0.121033 0.065508
v 0.334754 0.072976 -0.023253
v 0.241668 0.258856 -0.049191
v 0.208230 0.181696 0.124275
v -0.126421 0.268344 -0.107997
v -0.064565 0.230526 -0.146047
v -0.186167 0.224446 -0.112881
v -0.127929 0.328865 -0.058393
v -0.021499 0.266993 -0.097620
v -0.130783 0.202227 -0.194476
v -0.230473 0.272933 -0.029112
v -0.247137 -0.012588 -0.163644
v -0.293078 0.062251 -0.164217
v -0.232470 -0.038355 -0.247492
v -0.270617 -0.053305 -0.130718
v -0.311081 0.034740 -0.076837
v -0.219733 0.062162 -0.248386
v -0.207687 -0.112365 -0.192858
v -0.004380 -0.299171 0.059935
v -0.006867 -0.242129 0.115956
v -0.064284 -0.288996 0.021742
v 0.048595 -0.322075 0.031121
v 0.076481 -0.278500 0.123612
v -0.091418 -0.274516 0.116044
v -0.021750 -0.293863 -0.049488
v 0.300539 0.031694 -0.143855
v 0.261666 0.126791 -0.142786
v 0.199886 0.223516 -0.131465
v 0.132899 0.265028 0.181054
v 0.140529 0.291207 0.073646
v 0.150338 0.351565 -0.031638
v 0.131432 -0.271591 0.105421
v 0.085807 -0.296190 0.007106
v 0.024739 -0.301655 -0.092951
v 0.231901 -0.197750 0.159552
v 0.294443 -0.164280 0.080765
v 0.216197 -0.084899 -0.011176
v -0.122409 0.041495 -0.305021
v -0.143620 -0.063155 -0.318152
v -0.119519 -0.154170 -0.255004
v 0.218860 -0.139381 -0.177711
v 0.136678 -0.200440 -0.204216
v 0.035188 -0.222477 -0.194066
v 0.190630 -0.027345 -0.230438
v 0.117802 0.020815 -0.329552
v 0.009215 0.074988 -0.343903
v 0.002492 0.339455 -0.061091
v -0.096297 0.297023 -0.010526
v -0.193393 0.246253 0.032081
v 0.194792 0.139854 0.166852
v 0.270342 0.085830 0.096695
v 0.314692 0.016524 0.008699
v -0.186692 0.142699 -0.219802
v -0.280458 0.170465 -0.140482
v -0.281884 0.146369 -0.033354
v -0.090699 -0.205487 0.193762
v -0.005165 -0.190619 0.183640
v 0.076769 -0.196887 0.194375
v 0.125156 0.105993 0.304452
v 0.158021 0.003883 0.311710
v 0.171094 -0.112438 0.272254
v -0.047683 0.152045 -0.229302
v 0.006068 0.223973 -0.215772
v 0.065827 0.268880 -0.160842
v -0.178667 -0.267121 0.095833
v -0.139613 -0.256737 -0.014970
v -0.099580 -0.224693 -0.088483
v -0.208451 -0.137748 0.157021
v -0.302795 -0.078914 0.153982
v -0.343373 0.022745 0.115390
v -0.026025 0.074149 0.268338
v -0.074499 -0.012821 0.231929
v -0.136767 -0.108044 0.253664
v -0.262686 0.002631 -0.019504
v -0.240492 -0.076353 -0.086018
v -0.170402 -0.138365 -0.133866
v -0.035106 0.181188 0.221176
v -0.120669 0.176962 0.180296
v -0.193931 0.158049 0.126035
v 0.071741 0.166517 0.233679
v -0.169538 -0.199336 0.192241
v 0.149700 -0.191758 0.185964
v 0.314685 -0.067683 -0.132797
v -0.095280 0.111603 -0.279742
v 0.109955 0.293767 -0.102511
v -0.254892 0.112872 0.054015
v -0.072778 -0.223634 -0.175872
vt 0.200521 0.268229
vt 0.197917 0.197917
vt 0.222222 0.222222
vt 0.109375 0.223958
vt 0.166667 0.166667
vt 0.171875 0.328125
vt 0.149306 0.253472
vt 0.052083 0.281250
vt 0.253472 0.149306
vt 0.268229 0.200521
vt 0.328125 0.171875
vt 0.223958 0.109375
vt 0.312500 0.104167
vt 0.263889 0.263889
vt 0.250000 0.333333
vt 0.333333 0.250000
vt 0.333333 0.333334
vt 0.111111 0.555556
vt 0.079861 0.482639
vt 0.135417 0.531250
vt 0.166667 0.500000
vt 0.065104 0.533854
vt 0.020833 0.437500
vt 0.109375 0.442709
vt 0.184028 0.586806
vt 0.132813 0.601563
vt 0.161458 0.661458
vt 0.223958 0.557292
vt 0.281250 0.614583
vt 0.229167 0.645833
vt 0.069445 0.597222
vt 0.000000 0.583333
vt 0.005208 0.505208
vt 0.083333 0.666667
vt 0.000000 0.666667
vt 0.777778 0.222222
vt 0.746528 0.149306
vt 0.802083 0.197917
vt 0.833333 0.166667
vt 0.671875 0.171875
vt 0.731771 0.200521
vt 0.687500 0.104167
vt 0.776042 0.109375
vt 0.850695 0.253472
vt 0.799479 0.268229
vt 0.828125 0.328125
vt 0.947917 0.281250
vt 0.895833 0.312500
vt 0.736111 0.263889
vt 0.666667 0.250000
vt 0.750000 0.333333
vt 0.666667 0.333333
vt 0.111111 0.777778
vt 0.184028 0.746528
vt 0.135417 0.802083
vt 0.166667 0.833333
vt 0.161458 0.671875
vt 0.132812 0.731771
vt 0.281250 0.718750
vt 0.223958 0.776042
vt 0.065104 0.799479
vt 0.079861 0.850694
vt 0.005208 0.828125
vt 0.109375 0.890625
vt 0.020833 0.895833
vt 0.069444 0.736111
vt 0.083333 0.666667
vt 0.000000 0.750000
vt 0.000000 0.666667
vt 0.444444 0.555556
vt 0.413194 0.482639
vt 0.468750 0.531250
vt 0.442708 0.442709
vt 0.500000 0.500000
vt 0.338542 0.505209
vt 0.398438 0.533854
vt 0.354167 0.437500
vt 0.466146 0.601563
vt 0.517361 0.586806
vt 0.494792 0.661458
vt 0.557292 0.557292
vt 0.562500 0.645834
vt 0.402778 0.597222
vt 0.333333 0.583334
vt 0.333333 0.666667
vt 0.444445 0.222222
vt 0.413195 0.149305
vt 0.468750 0.197917
vt 0.500000 0.166667
vt 0.338542 0.171875
vt 0.398438 0.200521
vt 0.354167 0.104167
vt 0.442708 0.109375
vt 0.517361 0.253472
vt 0.466146 0.268229
vt 0.494792 0.328125
vt 0.557292 0.223958
vt 0.562500 0.312500
vt 0.402778 0.263889
vt 0.333333 0.250000
vt 0.416667 0.333333
vt 0.333333 0.333333
vt 0.111111 0.111111
vt 0.079861 0.184028
vt 0.065104 0.132812
vt 0.005208 0.161458
vt 0.135417 0.135417
vt 0.020833 0.229167
vt 0.069444 0.069444
vt 0.132813 0.065104
vt 0.083333 0.000000
vt 0.161458 0.005208
vt 0.000000 0.083333
vt 0.000000 0.000000
vt 0.184028 0.079861
vt 0.229167 0.020833
vt 0.222222 0.444445
vt 0.149306 0.413195
vt 0.200521 0.398438
vt 0.171875 0.338542
vt 0.197917 0.468750
vt 0.104167 0.354167
vt 0.263889 0.402778
vt 0.268229 0.466146
vt 0.333333 0.416667
vt 0.328125 0.494792
vt 0.250000 0.333334
vt 0.333334 0.333334
vt 0.253472 0.517361
vt 0.888889 0.111111
vt 0.815972 0.079861
vt 0.867188 0.065104
vt 0.838542 0.005208
vt 0.864583 0.135417
vt 0.770833 0.020833
vt 0.930556 0.069444
vt 0.934896 0.132812
vt 0.994792 0.161458
vt 0.916667 0.000000
vt 1.000000 0.000000
vt 1.000000 0.083333
vt 0.920139 0.184028
vt 0.979167 0.229167
vt 0.890625 0.223958
vt 0.222222 0.888889
vt 0.253472 0.815972
vt 0.268229 0.867188
vt 0.328125 0.838542
vt 0.197917 0.864583
vt 0.312500 0.770833
vt 0.263889 0.930556
vt 0.200521 0.934896
vt 0.250000 1.000000
vt 0.171875 0.994792
vt 0.333333 0.916667
vt 0.333333 1.000000
vt 0.149305 0.920139
vt 0.104167 0.979167
vt 0.555555 0.444445
vt 0.482639 0.413195
vt 0.533854 0.398438
vt 0.505208 0.338542
vt 0.531250 0.468750
vt 0.437500 0.354167
vt 0.597222 0.402778
vt 0.601562 0.466146
vt 0.666667 0.416667
vt 0.661458 0.494792
vt 0.583333 0.333334
vt 0.666666 0.333334
vt 0.586805 0.517361
vt 0.645833 0.562500
vt 0.555556 0.111111
vt 0.482639 0.079861
vt 0.533854 0.065104
vt 0.437500 0.020833
vt 0.505208 0.005208
vt 0.531250 0.135417
vt 0.597222 0.069444
vt 0.601563 0.132812
vt 0.666667 0.083333
vt 0.661458 0.161458
vt 0.583333 0.000000
vt 0.666667 0.000000
vt 0.586806 0.184028
vt 0.614583 0.281250
vt 0.104167 0.312500
vt 0.281250 0.052083
vt 0.052083 0.385417
vt 0.718750 0.052083
vt 0.229167 0.687500
vt 0.052083 0.947917
vt 0.385417 0.385417
vt 0.614583 0.614584
vt 0.416667 0.666667
vt 0.385417 0.052083
vt 0.312500 0.562500
vt 0.645833 0.229167
vn 0.0729 -0.0598 0.9955
vn -0.6263 0.1396 0.7669
vn -0.1340 -0.1565 0.9785
vn -0.3661 0.3282 0.8708
vn -0.3454 0.0110 0.9384
vn -0.0269 -0.1552 0.9875
vn -0.2289 0.2330 0.9451
vn -0.2071 0.5096 0.8351
vn -0.1861 -0.4465 0.8752
vn -0.1200 -0.7758 0.6195
vn 0.0068 -0.6799 0.7333
vn -0.3373 -0.1143 0.9344
vn 0.0354 -0.5933 0.8042
vn 0.0599 -0.5593 0.8268
vn 0.2286 -0.4502 0.8631
vn -0.0779 -0.8128 0.5773
vn 0.2146 -0.8080 0.5487
vn 0.3506 0.5437 -0.7625
vn 0.7679 -0.0840 -0.6350
vn 0.3252 0.3627 -0.8733
vn 0.1988 -0.4811 -0.8538
vn 0.6845 0.4696 -0.5576
vn 0.7502 0.0762 -0.6568
vn 0.5631 -0.4016 -0.7222
vn -0.0660 0.6657 -0.7433
vn 0.0026 0.4306 -0.9025
vn -0.1416 0.5599 -0.8164
vn -0.1385 0.3648 -0.9207
vn -0.0689 0.5661 -0.8214
vn -0.0586 0.5610 -0.8258
vn 0.4918 0.6240 -0.6073
vn 0.6565 0.6000 -0.4572
vn 0.6619 0.3714 -0.6512
vn 0.1123 0.8075 -0.5791
vn 0.3299 0.8389 -0.4329
vn 0.8604 0.5073 0.0495
vn 0.9768 -0.1653 0.1363
vn 0.9637 0.0320 0.2649
vn 0.8208 -0.0549 0.5686
vn 0.9962 -0.0862 -0.0093
vn 0.9868 0.1437 0.0743
vn 0.9262 -0.3744 0.0442
vn 0.8441 -0.3565 0.4005
vn 0.7494 0.4299 0.5035
vn 0.7580 0.3437 0.5543
vn 0.7627 0.1904 0.6181
vn 0.5951 0.4799 0.6447
vn 0.7512 0.5642 0.3424
vn 0.7080 -0.2526 0.6595
vn 0.5682 -0.5157 0.6413
vn 0.5591 -0.3915 0.7308
vn 0.3070 -0.6451 0.6997
vn -0.3498 0.9166 0.1936
vn 0.0132 0.9995 0.0279
vn -0.4663 0.8756 -0.1258
vn -0.3120 0.9114 0.2684
vn 0.1922 0.9368 0.2924
vn 0.2313 0.9541 0.1903
vn -0.1302 0.8722 -0.4715
vn -0.0092 0.9397 -0.3419
vn -0.5312 0.6031 0.5951
vn -0.6180 0.6896 0.3776
vn -0.5307 0.4656 0.7082
vn -0.6150 0.6530 0.4420
vn -0.7159 0.4756 0.5112
vn -0.0581 0.6999 0.7118
vn 0.2056 0.7652 0.6101
vn -0.2624 0.4061 0.8753
vn 0.0214 0.3814 0.9242
vn -0.8060 -0.4996 -0.3174
vn -0.9251 0.1076 -0.3641
vn -0.6003 -0.0965 -0.7939
vn -0.9826 0.1084 -0.1508
vn -0.8590 -0.3997 -0.3198
vn -0.7754 -0.5275 0.3470
vn -0.7953 -0.5530 0.2485
vn -0.9623 0.1785 -0.2053
vn -0.5161 -0.8102 -0.2779
vn -0.4569 -0.5645 -0.6874
vn -0.4037 -0.8344 -0.3752
vn -0.6495 -0.7154 -0.2575
vn -0.5693 -0.7026 -0.4268
vn -0.6927 -0.6470 0.3187
vn -0.7141 -0.5112 0.4783
vn -0.8354 -0.3674 0.4088
vn 0.6827 -0.6110 -0.4009
vn 0.4672 -0.8667 0.1748
vn 0.3582 -0.9142 -0.1897
vn 0.1001 -0.9950 -0.0058
vn 0.8421 -0.4782 -0.2493
vn 0.6813 -0.5848 -0.4403
vn 0.4655 -0.7464 0.4756
vn 0.1918 -0.8710 0.4524
vn 0.3831 -0.8263 -0.4128
vn 0.6133 -0.7773 -0.1398
vn 0.4384 -0.8105 -0.3885
vn 0.0371 -0.9488 -0.3138
vn 0.0780 -0.8210 -0.5656
vn 0.8560 -0.5130 -0.0635
vn 0.9692 -0.2435 -0.0376
vn 0.6801 -0.7205 -0.1358
vn 0.7013 -0.6870 0.1903
vn -0.3487 0.3095 0.8846
vn -0.2878 0.3035 0.9083
vn -0.4082 0.5788 0.7060
vn -0.5403 0.3726 0.7545
vn 0.0225 -0.1422 0.9896
vn -0.2210 0.4241 0.8783
vn -0.5288 0.6121 0.5880
vn -0.5145 -0.0876 0.8530
vn -0.7727 0.3948 0.4970
vn -0.6284 -0.3476 0.6959
vn -0.5568 0.6368 0.5334
vn -0.6723 0.7161 0.1877
vn -0.3869 -0.3065 0.8697
vn -0.6003 -0.4071 0.6884
vn 0.3695 0.0810 -0.9257
vn 0.5735 -0.0650 -0.8166
vn 0.4403 -0.3684 -0.8188
vn 0.4116 -0.6036 -0.6828
vn 0.3320 -0.2742 -0.9026
vn 0.5806 -0.2899 -0.7608
vn -0.0201 -0.6148 -0.7884
vn 0.0243 -0.1116 -0.9935
vn -0.3513 -0.6274 -0.6950
vn -0.1262 -0.2208 -0.9671
vn 0.1156 -0.8810 -0.4588
vn -0.2209 -0.8838 -0.4124
vn -0.0627 -0.0648 -0.9959
vn 0.8413 0.4062 0.3567
vn 0.9954 0.0588 0.0760
vn 0.8936 0.4316 -0.1232
vn 0.8061 0.3991 -0.4369
vn 0.8443 0.3237 0.4271
vn 0.9627 0.1599 -0.2181
vn 0.7395 0.6486 -0.1800
vn 0.7230 0.5660 0.3960
vn 0.6695 0.6489 0.3615
vn 0.5892 0.6077 -0.5325
vn 0.4279 0.6407 -0.6375
vn 0.6858 0.7077 -0.1697
vn 0.7593 0.4124 0.5033
vn 0.7269 0.3972 0.5602
vn 0.6697 0.2852 0.6857
vn -0.1993 0.7054 -0.6802
vn -0.1235 0.7261 -0.6764
vn -0.0898 0.7980 -0.5959
vn -0.4330 0.7438 -0.5093
vn -0.2653 0.9521 -0.1522
vn -0.2483 0.9158 -0.3157
vn -0.1785 0.7366 -0.6523
vn -0.5159 0.6941 -0.5021
vn -0.3445 0.6768 -0.6506
vn -0.4480 0.8754 -0.1817
vn -0.0660 0.7053 -0.7058
vn -0.0508 0.6737 -0.7372
vn -0.7265 0.6863 0.0337
vn -0.8121 0.5554 0.1792
vn -0.8670 -0.2118 -0.4511
vn -0.9702 -0.1872 0.1538
vn -0.8694 -0.0762 -0.4883
vn -0.8793 0.2401 -0.4113
vn -0.8802 -0.4194 -0.2221
vn -0.9688 0.0674 0.2387
vn -0.6523 0.2266 -0.7233
vn -0.8403 -0.1962 -0.5053
vn -0.4679 0.2910 -0.8345
vn -0.6546 -0.2120 -0.7257
vn -0.5222 0.4060 -0.7500
vn -0.3803 0.4419 -0.8125
vn -0.6990 -0.6743 -0.2380
vn -0.6473 -0.6816 -0.3412
vn -0.1896 -0.9226 0.3359
vn 0.0378 -0.8081 0.5878
vn -0.0190 -0.7276 0.6857
vn -0.0280 -0.7164 0.6972
vn 0.0279 -0.7958 0.6049
vn 0.1505 -0.9885 0.0124
vn -0.0031 -0.8843 0.4669
vn -0.2368 -0.9706 -0.0423
vn -0.2138 -0.9371 0.2760
vn -0.3461 -0.8895 -0.2982
vn 0.0868 -0.7578 0.6467
vn -0.1292 -0.7689 0.6262
vn -0.2961 -0.9370 -0.1855
vn -0.3562 -0.8323 -0.4248
vn -0.1938 0.3489 0.9169
vn -0.4604 -0.3758 0.8042
vn 0.5943 -0.1032 -0.7976
vn 0.9521 -0.2629 0.1564
vn -0.1755 0.9843 -0.0202
vn -0.8007 0.4366 0.4103
vn -0.9797 0.1545 -0.1278
vn -0.6929 -0.6896 -0.2104
vn -0.8219 -0.5690 0.0269
vn 0.1471 -0.7190 0.6793
vn -0.0601 0.2469 -0.9672
vn -0.5160 -0.7801 -0.3538
usemtl Material.002
s 1
f 4/1/1 2/2/2 1/3/3
f 2/2/2 130/4/4 131/5/5
f 119/6/6 5/7/7 4/1/1
f 5/7/7 139/8/8 130/4/4
f 1/3/3 6/9/9 3/10/10
f 6/9/9 116/11/11 3/10/10
f 131/5/5 6/9/9 2/2/2
f 132/12/12 115/13/13 6/9/9
f 1/3/3 7/14/14 4/1/1
f 4/1/1 120/15/15 119/6/6
f 3/10/10 117/16/16 7/14/14
f 7/14/14 141/17/17 120/15/15
f 8/18/18 12/19/19 9/20/20
f 12/19/19 104/21/21 9/20/20
f 11/22/22 85/23/23 12/19/19
f 85/23/23 103/24/24 12/19/19
f 8/18/18 13/25/25 10/26/26
f 13/25/25 122/27/27 10/26/26
f 9/20/20 105/28/28 13/25/25
f 13/25/25 143/29/29 121/30/30
f 8/18/18 14/31/31 11/22/22
f 11/22/22 87/32/32 86/33/33
f 10/26/26 123/34/34 14/31/31
f 14/31/31 144/35/35 87/32/32
f 15/36/36 19/37/37 16/38/38
f 19/37/37 110/39/39 16/38/38
f 95/40/40 19/37/37 18/41/41
f 96/42/42 111/43/43 19/37/37
f 15/36/36 20/44/44 17/45/45
f 20/44/44 119/46/46 17/45/45
f 110/39/39 20/44/44 16/38/38
f 20/44/44 139/47/47 118/48/48
f 15/36/36 21/49/49 18/41/41
f 18/41/41 94/50/50 95/40/40
f 17/45/45 120/51/51 21/49/49
f 21/49/49 141/52/52 94/50/50
f 22/53/53 26/54/54 23/55/55
f 26/54/54 107/56/56 23/55/55
f 89/57/57 26/54/54 25/58/58
f 26/54/54 144/59/59 106/60/60
f 23/55/55 24/61/61 22/53/53
f 27/62/62 137/63/63 24/61/61
f 107/56/56 27/62/62 23/55/55
f 108/64/64 138/65/65 27/62/62
f 22/53/53 28/66/66 25/58/58
f 25/58/58 88/67/67 89/57/57
f 24/61/61 136/68/68 28/66/66
f 28/66/66 139/69/69 88/67/67
f 29/70/70 33/71/71 30/72/72
f 30/72/72 133/73/73 134/74/74
f 128/75/75 33/71/71 32/76/76
f 129/77/77 133/73/73 33/71/71
f 30/72/72 31/78/78 29/70/70
f 34/79/79 125/80/80 31/78/78
f 134/74/74 34/79/79 30/72/72
f 135/81/81 126/82/82 34/79/79
f 29/70/70 35/83/83 32/76/76
f 32/76/76 127/84/84 128/75/75
f 125/80/80 35/83/83 31/78/78
f 35/83/83 140/85/85 127/84/84
f 36/86/86 40/87/87 37/88/88
f 40/87/87 92/89/89 37/88/88
f 95/90/90 40/87/87 39/91/91
f 94/92/92 91/93/93 40/87/87
f 36/86/86 41/94/94 38/95/95
f 41/94/94 101/96/96 38/95/95
f 92/89/89 41/94/94 37/88/88
f 93/97/97 102/98/98 41/94/94
f 36/86/86 42/99/99 39/91/91
f 39/91/91 96/100/100 95/90/90
f 38/95/95 100/101/101 42/99/99
f 42/99/99 142/102/102 96/100/100
f 43/103/103 47/104/104 44/105/105
f 47/104/104 137/106/106 44/105/105
f 131/5/5 47/104/104 46/107/107
f 130/4/4 136/108/108 47/104/104
f 43/103/103 48/109/109 45/110/110
f 45/110/110 129/111/111 128/112/112
f 44/105/105 138/113/113 48/109/109
f 48/109/109 145/114/114 129/111/111
f 43/103/103 49/115/115 46/107/107
f 49/115/115 131/5/5 46/107/107
f 128/112/112 49/115/115 45/110/110
f 127/116/116 132/12/12 49/115/115
f 50/117/117 54/118/118 51/119/119
f 54/118/118 101/120/120 51/119/119
f 53/121/121 103/24/24 54/118/118
f 103/24/24 100/122/122 54/118/118
f 50/117/117 55/123/123 52/124/124
f 52/124/124 99/125/125 98/126/126
f 51/119/119 102/127/127 55/123/123
f 55/123/123 146/128/128 99/125/125
f 50/117/117 56/129/129 53/121/121
f 56/129/129 104/21/21 53/121/121
f 98/126/126 56/129/129 52/124/124
f 56/129/129 143/29/29 105/28/28
f 57/130/130 61/131/131 58/132/132
f 61/131/131 86/133/133 58/132/132
f 60/134/134 111/43/43 61/131/131
f 111/43/43 85/135/135 61/131/131
f 57/130/130 62/136/136 59/137/137
f 62/136/136 89/138/138 59/137/137
f 58/132/132 87/139/139 62/136/136
f 62/136/136 144/140/140 90/141/141
f 57/130/130 63/142/142 60/134/134
f 63/142/142 110/39/39 60/134/134
f 89/138/138 63/142/142 59/137/137
f 88/143/143 109/144/144 63/142/142
f 64/145/145 68/146/146 65/147/147
f 68/146/146 122/148/148 65/147/147
f 67/149/149 106/60/60 68/146/146
f 68/146/146 144/59/59 123/150/150
f 64/145/145 69/151/151 66/152/152
f 66/152/152 112/153/153 113/154/154
f 65/147/147 121/155/155 69/151/151
f 69/151/151 143/156/156 112/153/153
f 64/145/145 70/157/157 67/149/149
f 70/157/157 107/56/56 67/149/149
f 66/152/152 114/158/158 70/157/157
f 114/158/158 108/64/64 70/157/157
f 71/159/159 75/160/160 72/161/161
f 75/160/160 113/162/162 72/161/161
f 74/163/163 133/73/73 75/160/160
f 133/73/73 114/164/164 75/160/160
f 71/159/159 76/165/165 73/166/166
f 73/166/166 97/167/167 98/168/168
f 72/161/161 112/169/169 76/165/165
f 76/165/165 143/170/170 97/167/167
f 71/159/159 77/171/171 74/163/163
f 77/171/171 134/74/74 74/163/163
f 98/168/168 77/171/171 73/166/166
f 99/172/172 135/81/81 77/171/171
f 78/173/173 82/174/174 79/175/175
f 79/175/175 117/176/176 116/177/177
f 92/89/89 82/174/174 81/178/178
f 91/93/93 117/176/176 82/174/174
f 78/173/173 83/179/179 80/180/180
f 80/180/180 124/181/181 125/182/182
f 79/175/175 115/183/183 83/179/179
f 83/179/179 140/184/184 124/181/181
f 78/173/173 84/185/185 81/178/178
f 84/185/185 92/89/89 81/178/178
f 125/182/182 84/185/185 80/180/180
f 84/185/185 146/186/186 93/97/97
f 4/1/1 5/7/7 2/2/2
f 2/2/2 5/7/7 130/4/4
f 119/6/6 118/187/187 5/7/7
f 5/7/7 118/187/187 139/8/8
f 1/3/3 2/2/2 6/9/9
f 6/9/9 115/13/13 116/11/11
f 131/5/5 132/12/12 6/9/9
f 132/12/12 140/188/188 115/13/13
f 1/3/3 3/10/10 7/14/14
f 4/1/1 7/14/14 120/15/15
f 3/10/10 116/11/11 117/16/16
f 7/14/14 117/16/16 141/17/17
f 8/18/18 11/22/22 12/19/19
f 12/19/19 103/24/24 104/21/21
f 11/22/22 86/33/33 85/23/23
f 85/23/23 142/189/189 103/24/24
f 8/18/18 9/20/20 13/25/25
f 13/25/25 121/30/30 122/27/27
f 9/20/20 104/21/21 105/28/28
f 13/25/25 105/28/28 143/29/29
f 8/18/18 10/26/26 14/31/31
f 11/22/22 14/31/31 87/32/32
f 10/26/26 122/27/27 123/34/34
f 14/31/31 123/34/34 144/35/35
f 15/36/36 18/41/41 19/37/37
f 19/37/37 111/43/43 110/39/39
f 95/40/40 96/42/42 19/37/37
f 96/42/42 142/190/190 111/43/43
f 15/36/36 16/38/38 20/44/44
f 20/44/44 118/48/48 119/46/46
f 110/39/39 109/144/144 20/44/44
f 20/44/44 109/144/144 139/47/47
f 15/36/36 17/45/45 21/49/49
f 18/41/41 21/49/49 94/50/50
f 17/45/45 119/46/46 120/51/51
f 21/49/49 120/51/51 141/52/52
f 22/53/53 25/58/58 26/54/54
f 26/54/54 106/60/60 107/56/56
f 89/57/57 90/191/191 26/54/54
f 26/54/54 90/191/191 144/59/59
f 23/55/55 27/62/62 24/61/61
f 27/62/62 138/65/65 137/63/63
f 107/56/56 108/64/64 27/62/62
f 108/64/64 145/192/192 138/65/65
f 22/53/53 24/61/61 28/66/66
f 25/58/58 28/66/66 88/67/67
f 24/61/61 137/63/63 136/68/68
f 28/66/66 136/68/68 139/69/69
f 29/70/70 32/76/76 33/71/71
f 30/72/72 33/71/71 133/73/73
f 128/75/75 129/77/77 33/71/71
f 129/77/77 145/193/193 133/73/73
f 30/72/72 34/79/79 31/78/78
f 34/79/79 126/82/82 125/80/80
f 134/74/74 135/81/81 34/79/79
f 135/81/81 146/194/194 126/82/82
f 29/70/70 31/78/78 35/83/83
f 32/76/76 35/83/83 127/84/84
f 125/80/80 124/195/195 35/83/83
f 35/83/83 124/195/195 140/85/85
f 36/86/86 39/91/91 40/87/87
f 40/87/87 91/93/93 92/89/89
f 95/90/90 94/92/92 40/87/87
f 94/92/92 141/196/196 91/93/93
f 36/86/86 37/88/88 41/94/94
f 41/94/94 102/98/98 101/96/96
f 92/89/89 93/97/97 41/94/94
f 93/97/97 146/186/186 102/98/98
f 36/86/86 38/95/95 42/99/99
f 39/91/91 42/99/99 96/100/100
f 38/95/95 101/96/96 100/101/101
f 42/99/99 100/101/101 142/102/102
f 43/103/103 46/107/107 47/104/104
f 47/104/104 136/108/108 137/106/106
f 131/5/5 130/4/4 47/104/104
f 130/4/4 139/8/8 136/108/108
f 43/103/103 44/105/105 48/109/109
f 45/110/110 48/109/109 129/111/111
f 44/105/105 137/106/106 138/113/113
f 48/109/109 138/113/113 145/114/114
f 43/103/103 45/110/110 49/115/115
f 49/115/115 132/12/12 131/5/5
f 128/112/112 127/116/116 49/115/115
f 127/116/116 140/188/188 132/12/12
f 50/117/117 53/121/121 54/118/118
f 54/118/118 100/122/122 101/120/120
f 53/121/121 104/21/21 103/24/24
f 103/24/24 142/189/189 100/122/122
f 50/117/117 51/119/119 55/123/123
f 52/124/124 55/123/123 99/125/125
f 51/119/119 101/120/120 102/127/127
f 55/123/123 102/127/127 146/128/128
f 50/117/117 52/124/124 56/129/129
f 56/129/129 105/28/28 104/21/21
f 98/126/126 97/197/197 56/129/129
f 56/129/129 97/197/197 143/29/29
f 57/130/130 60/134/134 61/131/131
f 61/131/131 85/135/135 86/133/133
f 60/134/134 110/39/39 111/43/43
f 111/43/43 142/190/190 85/135/135
f 57/130/130 58/132/132 62/136/136
f 62/136/136 90/141/141 89/138/138
f 58/132/132 86/133/133 87/139/139
f 62/136/136 87/139/139 144/140/140
f 57/130/130 59/137/137 63/142/142
f 63/142/142 109/144/144 110/39/39
f 89/138/138 88/143/143 63/142/142
f 88/143/143 139/47/47 109/144/144
f 64/145/145 67/149/149 68/146/146
f 68/146/146 123/150/150 122/148/148
f 67/149/149 107/56/56 106/60/60
f 68/146/146 106/60/60 144/59/59
f 64/145/145 65/147/147 69/151/151
f 66/152/152 69/151/151 112/153/153
f 65/147/147 122/148/148 121/155/155
f 69/151/151 121/155/155 143/156/156
f 64/145/145 66/152/152 70/157/157
f 70/157/157 108/64/64 107/56/56
f 66/152/152 113/154/154 114/158/158
f 114/158/158 145/192/192 108/64/64
f 71/159/159 74/163/163 75/160/160
f 75/160/160 114/164/164 113/162/162
f 74/163/163 134/74/74 133/73/73
f 133/73/73 145/193/193 114/164/164
f 71/159/159 72/161/161 76/165/165
f 73/166/166 76/165/165 97/167/167
f 72/161/161 113/162/162 112/169/169
f 76/165/165 112/169/169 143/170/170
f 71/159/159 73/166/166 77/171/171
f 77/171/171 135/81/81 134/74/74
f 98/168/168 99/172/172 77/171/171
f 99/172/172 146/194/194 135/81/81
f 78/173/173 81/178/178 82/174/174
f 79/175/175 82/174/174 117/176/176
f 92/89/89 91/93/93 82/174/174
f 91/93/93 141/196/196 117/176/176
f 78/173/173 79/175/175 83/179/179
f 80/180/180 83/179/179 124/181/181
f 79/175/175 116/177/177 115/183/183
f 83/179/179 115/183/183 140/184/184
f 78/173/173 80/180/180 84/185/185
f 84/185/185 93/97/97 92/89/89
f 125/182/182 126/198/198 84/185/185
f 84/185/185 126/198/198 146/186/186
