# Blender v2.79 (sub 0) OBJ File: ''
# www.blender.org
mtllib cube.mtl
o Cube
v 0.248900 -0.623178 0.217411
v 0.054295 0.000900 0.703292
v -0.635629 0.111618 0.284757
v -0.441024 -0.512460 -0.201125
v 0.635629 -0.111618 -0.284756
v 0.441024 0.512460 0.201125
v -0.248900 0.623177 -0.217411
v -0.054295 -0.000900 -0.703292
vn -0.4748 -0.6281 0.6165
vn 0.4748 0.6281 -0.6165
vn 0.8470 -0.1359 0.5139
vn -0.2389 0.7662 0.5965
vn -0.8470 0.1359 -0.5139
vn 0.2389 -0.7662 -0.5965
usemtl Material
s off
f 2//1 4//1 1//1
f 5//2 7//2 6//2
f 5//3 2//3 1//3
f 6//4 3//4 2//4
f 3//5 8//5 4//5
f 1//6 8//6 5//6
f 2//1 3//1 4//1
f 5//2 8//2 7//2
f 5//3 6//3 2//3
f 6//4 7//4 3//4
f 3//5 7//5 8//5
f 1//6 4//6 8//6
