# Blender v2.79 (sub 0) OBJ File: 'cube.blend'
# www.blender.org
mtllib cube2.mtl
o Cube.001
v 0.054295 0.000900 0.703292
v -0.441024 -0.512460 -0.201125
v 0.248900 -0.623178 0.217411
v 0.635629 -0.111618 -0.284756
v -0.248900 0.623177 -0.217411
v 0.441024 0.512460 0.201125
v -0.635629 0.111618 0.284757
v -0.054295 -0.000900 -0.703292
vt 0.000000 0.333333
vt 0.333333 0.000000
vt 0.333333 0.333334
vt 0.000000 0.333334
vt 0.333333 0.666667
vt 0.000000 0.666667
vt 0.666667 0.000000
vt 1.000000 0.333333
vt 0.666667 0.333333
vt 0.333333 0.666667
vt 0.000000 1.000000
vt 0.000000 0.666667
vt 0.333333 0.333334
vt 0.666667 0.666667
vt 0.333333 0.666667
vt 0.333333 0.000000
vt 0.666667 0.333333
vt 0.333333 0.333333
vt 0.000000 0.000000
vt 0.333334 0.333334
vt 1.000000 0.000000
vt 0.333333 1.000000
vt 0.666666 0.333334
vt 0.666667 0.000000
vn -0.4748 -0.6281 0.6165
vn 0.4748 0.6281 -0.6165
vn 0.8470 -0.1359 0.5139
vn -0.2389 0.7662 0.5965
vn -0.8470 0.1359 -0.5139
vn 0.2389 -0.7662 -0.5965
usemtl Material.002
s 1
f 1/1/1 2/2/1 3/3/1
f 4/4/2 5/5/2 6/6/2
f 4/7/3 1/8/3 3/9/3
f 6/10/4 7/11/4 1/12/4
f 7/13/5 8/14/5 2/15/5
f 3/16/6 8/17/6 4/18/6
f 1/1/1 7/19/1 2/2/1
f 4/4/2 8/20/2 5/5/2
f 4/7/3 6/21/3 1/8/3
f 6/10/4 5/22/4 7/11/4
f 7/13/5 5/23/5 8/14/5
f 3/16/6 2/24/6 8/17/6
